<svg width="95" height="66" viewBox="0 0 95 66" fill="none" xmlns="http://www.w3.org/2000/svg">
<path d="M69.5929 37.484C69.2214 36.0765 68.4491 35.2413 67.1172 34.875C68.4191 34.4657 69.2412 33.6736 69.543 32.3965C69.8298 32.8896 70.0597 33.4688 70.4397 33.8872C70.8278 34.3147 71.3631 34.5844 71.8224 34.9158C70.7188 35.2393 69.9757 36.0954 69.5929 37.484Z" fill="url(#paint0_linear_5439_10015)"/>
<path d="M66.3357 34.327C66.0798 33.3563 65.5473 32.7806 64.6289 32.5274C65.5265 32.2453 66.0934 31.6992 66.3014 30.8184C66.4991 31.1583 66.6578 31.5575 66.9197 31.8462C67.1873 32.1401 67.5563 32.3269 67.8739 32.5552C67.1127 32.779 66.6 33.3696 66.3357 34.327Z" fill="url(#paint1_linear_5439_10015)"/>
<path d="M66.5802 39.0447C66.3978 38.1645 66.0181 37.6425 65.3633 37.413C66.0033 37.1571 66.4075 36.662 66.5558 35.8633C66.6968 36.1716 66.8099 36.5334 66.9966 36.7952C67.1874 37.0617 67.4506 37.2311 67.677 37.4381C67.1343 37.6411 66.7687 38.1766 66.5802 39.0447Z" fill="url(#paint2_linear_5439_10015)"/>
<path d="M58.1121 9.59085C60.4867 9.59085 62.4117 7.50945 62.4117 4.94191C62.4117 2.37437 60.4867 0.292969 58.1121 0.292969C55.7375 0.292969 53.8125 2.37437 53.8125 4.94191C53.8125 7.50945 55.7375 9.59085 58.1121 9.59085Z" fill="url(#paint3_linear_5439_10015)"/>
<path d="M73.6835 30.0887C72.7257 28.4311 71.3637 27.197 69.8573 26.1458C69.7085 26.0419 69.5512 25.9503 69.3978 25.8551C69.4367 25.9884 69.5105 26.0582 69.5861 26.1259C70.6153 27.0485 71.5622 28.0557 72.3425 29.2366C73.0517 30.3097 73.6509 31.4482 73.9284 32.7393C74.4008 34.9376 73.9522 36.9807 72.8622 38.9088C72.1946 40.0861 71.1343 40.9409 69.9004 41.2964C69.0221 41.5473 68.1278 41.7268 67.2248 41.8334C65.7681 42.0084 64.3166 41.9191 62.8717 41.7305V12.5548C62.8717 12.5053 62.8627 12.4562 62.8452 12.4104C62.8277 12.3646 62.802 12.323 62.7697 12.288C62.7373 12.2529 62.6989 12.2251 62.6565 12.2062C62.6142 12.1872 62.5689 12.1774 62.5231 12.1774H53.8163C53.724 12.1774 53.6354 12.2171 53.5701 12.2877C53.5048 12.3582 53.4681 12.454 53.468 12.5538V34.5449C53.3062 34.4145 53.2143 34.2565 53.1273 34.0965C51.6685 31.4184 50.21 28.74 48.7519 26.0614C46.1657 21.3149 43.5791 16.569 40.9919 11.8236C38.8842 7.95667 36.7774 4.08979 34.6715 0.222898C34.5682 0.0322695 34.4474 -0.000642342 34.2678 9.38047e-06C32.7801 0.00457144 31.2927 -0.00194563 29.805 0.00424574C29.4838 0.00493683 29.1628 0.0267009 28.844 0.069418C26.4507 0.39756 24.615 2.54596 24.5713 5.15285C24.5313 7.52936 24.5623 9.9075 24.5611 12.285C24.5593 16.5233 24.5602 20.762 24.5638 25.0011C24.5653 25.0292 24.5698 25.0571 24.577 25.0842C24.2972 24.8945 24.0173 24.7052 23.7389 24.5129C22.1858 23.4412 20.6596 22.3297 19.1725 21.1614C19.293 21.1461 19.4216 21.136 19.5569 21.1328H19.5702C19.6819 21.0435 19.7485 20.9842 19.8205 20.934C20.4086 20.5247 21.0006 20.1223 21.5827 19.7039C21.6637 19.6455 21.7592 19.4947 21.7418 19.4132C21.6556 19.0085 21.5336 18.6126 21.4269 18.2238C21.3821 18.2201 21.3371 18.2201 21.2923 18.2238C19.8567 18.5383 18.4202 18.8485 16.9871 19.1743C16.6532 19.2503 16.4366 19.1773 16.1435 18.7787C15.2939 17.6232 14.2364 16.6737 13.1069 15.846C12.126 15.1262 12.0293 14.4709 12.8036 13.7966C14.801 12.0587 16.7968 10.318 18.7911 8.5744C18.8478 8.52486 18.8891 8.45762 18.9092 8.38182C18.9294 8.30603 18.9275 8.22536 18.9038 8.15078C18.598 7.20578 17.8159 6.85222 16.8756 7.24554C14.3612 8.29807 11.8443 9.34343 9.33229 10.4031C8.68274 10.6772 8.1052 10.5912 7.54664 10.1454C5.98363 8.89863 4.39441 7.68903 2.85279 6.41198C2.20144 5.87203 1.52448 5.8906 0.809254 6.04539C0.489 6.11382 0.214239 6.31096 0.0997545 6.68342C-0.176212 7.58019 0.140728 8.8315 0.799915 9.45748C2.08485 10.6769 3.36406 11.9034 4.65441 13.1156C5.18646 13.6151 5.41874 14.2098 5.2898 14.9711C4.80655 17.8276 4.32673 20.6843 3.85031 23.5412C3.73613 24.221 3.90846 24.828 4.26788 25.3745C4.38176 25.5475 4.56162 25.6701 4.72822 25.8307C4.82584 25.6661 4.8873 25.5677 4.94394 25.4661C6.22817 23.1633 7.5124 20.8606 8.79662 18.5578C9.26721 17.7151 9.92158 17.7539 10.7097 18.6644C11.5867 19.6775 12.6355 20.4951 13.8237 21.019C14.4591 21.299 14.635 21.5101 14.6263 21.967C14.6016 23.275 14.5946 24.5836 14.5907 25.892C14.5907 26.0086 14.6263 26.1751 14.7013 26.2325C14.9146 26.3954 15.1568 26.5131 15.4117 26.6623L17.0084 23.7908C19.3433 25.5048 21.7644 27.0732 24.2375 28.5513C24.487 28.7006 24.5662 28.8671 24.5656 29.1705C24.557 35.3184 24.5548 41.4663 24.559 47.6142C24.559 47.7315 24.5683 47.8485 24.5737 47.9756H33.9705V33.7977C34.2094 33.9078 34.3922 33.9903 34.5715 34.075C36.221 34.8479 37.8617 35.6424 39.5208 36.3886C42.451 37.7083 45.4168 38.9261 48.4557 39.9278C48.5952 39.9737 48.7407 40.1126 48.8172 40.2507C50.1906 42.7325 51.5564 45.2192 52.9146 47.711C53.039 47.9391 53.1746 48.0105 53.4141 48.0098C56.4569 48.0003 59.4977 48.0039 62.5394 48.0026H62.5574C62.6498 48.0025 62.7383 47.9627 62.8036 47.892C62.8689 47.8213 62.9056 47.7255 62.9057 47.6256V47.5412C62.9057 46.2326 62.9096 44.9239 62.9057 43.6152C62.9057 43.3871 62.9394 43.2607 63.1961 43.2724C63.9168 43.305 64.6383 43.3304 65.359 43.3223C66.953 43.305 68.5353 43.148 70.0374 42.5285C71.5794 41.8927 72.9622 41.0061 73.7732 39.3526C75.2902 36.2498 75.4492 33.144 73.6835 30.0887ZM43.2262 35.498C40.0795 34.0705 36.9919 32.5194 33.9635 30.8447V15.8043C34.0645 15.9385 34.1166 15.9933 34.153 16.0585C34.4007 16.4995 34.6461 16.9415 34.8893 17.3847C38.3857 23.7392 41.8841 30.0928 45.3845 36.4453C44.6627 36.1381 43.9432 35.8224 43.2262 35.498Z" fill="url(#paint4_linear_5439_10015)"/>
<path d="M73.6835 30.0887C72.7257 28.4311 71.3637 27.197 69.8573 26.1458C69.7085 26.0419 69.5512 25.9503 69.3978 25.8551C69.4367 25.9884 69.5105 26.0582 69.5861 26.1259C70.6153 27.0485 71.5622 28.0557 72.3425 29.2366C73.0517 30.3097 73.6509 31.4482 73.9284 32.7393C74.4008 34.9376 73.9522 36.9807 72.8622 38.9088C72.1946 40.0861 71.1343 40.9409 69.9004 41.2964C69.0221 41.5473 68.1278 41.7268 67.2248 41.8334C65.7681 42.0084 64.3166 41.9191 62.8717 41.7305V12.5548C62.8717 12.5053 62.8627 12.4562 62.8452 12.4104C62.8277 12.3646 62.802 12.323 62.7697 12.288C62.7373 12.2529 62.6989 12.2251 62.6565 12.2062C62.6142 12.1872 62.5689 12.1774 62.5231 12.1774H53.8163C53.724 12.1774 53.6354 12.2171 53.5701 12.2877C53.5048 12.3582 53.4681 12.454 53.468 12.5538V34.5449C53.3062 34.4145 53.2143 34.2565 53.1273 34.0965C51.6685 31.4184 50.21 28.74 48.7519 26.0614C46.1657 21.3149 43.5791 16.569 40.9919 11.8236C38.8842 7.95667 36.7774 4.08979 34.6715 0.222898C34.5682 0.0322695 34.4474 -0.000642342 34.2678 9.38047e-06C32.7801 0.00457144 31.2927 -0.00194563 29.805 0.00424574C29.4838 0.00493683 29.1628 0.0267009 28.844 0.069418C26.4507 0.39756 24.615 2.54596 24.5713 5.15285C24.5313 7.52936 24.5623 9.9075 24.5611 12.285C24.5593 16.5233 24.5602 20.762 24.5638 25.0011C24.5653 25.0292 24.5698 25.0571 24.577 25.0842C24.2972 24.8945 24.0173 24.7052 23.7389 24.5129C22.1858 23.4412 20.6596 22.3297 19.1725 21.1614C19.293 21.1461 19.4216 21.136 19.5569 21.1328H19.5702C19.6819 21.0435 19.7485 20.9842 19.8205 20.934C20.4086 20.5247 21.0006 20.1223 21.5827 19.7039C21.6637 19.6455 21.7592 19.4947 21.7418 19.4132C21.6556 19.0085 21.5336 18.6126 21.4269 18.2238C21.3821 18.2201 21.3371 18.2201 21.2923 18.2238C19.8567 18.5383 18.4202 18.8485 16.9871 19.1743C16.6532 19.2503 16.4366 19.1773 16.1435 18.7787C15.2939 17.6232 14.2364 16.6737 13.1069 15.846C12.126 15.1262 12.0293 14.4709 12.8036 13.7966C14.801 12.0587 16.7968 10.318 18.7911 8.5744C18.8478 8.52486 18.8891 8.45762 18.9092 8.38182C18.9294 8.30603 18.9275 8.22536 18.9038 8.15078C18.598 7.20578 17.8159 6.85222 16.8756 7.24554C14.3612 8.29807 11.8443 9.34343 9.33229 10.4031C8.68274 10.6772 8.1052 10.5912 7.54664 10.1454C5.98363 8.89863 4.39441 7.68903 2.85279 6.41198C2.20144 5.87203 1.52448 5.8906 0.809254 6.04539C0.489 6.11382 0.214239 6.31096 0.0997545 6.68342C-0.176212 7.58019 0.140728 8.8315 0.799915 9.45748C2.08485 10.6769 3.36406 11.9034 4.65441 13.1156C5.18646 13.6151 5.41874 14.2098 5.2898 14.9711C4.80655 17.8276 4.32673 20.6843 3.85031 23.5412C3.73613 24.221 3.90846 24.828 4.26788 25.3745C4.38176 25.5475 4.56162 25.6701 4.72822 25.8307C4.82584 25.6661 4.8873 25.5677 4.94394 25.4661C6.22817 23.1633 7.5124 20.8606 8.79662 18.5578C9.26721 17.7151 9.92158 17.7539 10.7097 18.6644C11.5867 19.6775 12.6355 20.4951 13.8237 21.019C14.4591 21.299 14.635 21.5101 14.6263 21.967C14.6016 23.275 14.5946 24.5836 14.5907 25.892C14.5907 26.0086 14.6263 26.1751 14.7013 26.2325C14.9146 26.3954 15.1568 26.5131 15.4117 26.6623L17.0084 23.7908C19.3433 25.5048 21.7644 27.0732 24.2375 28.5513C24.487 28.7006 24.5662 28.8671 24.5656 29.1705C24.557 35.3184 24.5548 41.4663 24.559 47.6142C24.559 47.7315 24.5683 47.8485 24.5737 47.9756H33.9705V33.7977C34.2094 33.9078 34.3922 33.9903 34.5715 34.075C36.221 34.8479 37.8617 35.6424 39.5208 36.3886C42.451 37.7083 45.4168 38.9261 48.4557 39.9278C48.5952 39.9737 48.7407 40.1126 48.8172 40.2507C50.1906 42.7325 51.5564 45.2192 52.9146 47.711C53.039 47.9391 53.1746 48.0105 53.4141 48.0098C56.4569 48.0003 59.4977 48.0039 62.5394 48.0026H62.5574C62.6498 48.0025 62.7383 47.9627 62.8036 47.892C62.8689 47.8213 62.9056 47.7255 62.9057 47.6256V47.5412C62.9057 46.2326 62.9096 44.9239 62.9057 43.6152C62.9057 43.3871 62.9394 43.2607 63.1961 43.2724C63.9168 43.305 64.6383 43.3304 65.359 43.3223C66.953 43.305 68.5353 43.148 70.0374 42.5285C71.5794 41.8927 72.9622 41.0061 73.7732 39.3526C75.2902 36.2498 75.4492 33.144 73.6835 30.0887ZM43.2262 35.498C40.0795 34.0705 36.9919 32.5194 33.9635 30.8447V15.8043C34.0645 15.9385 34.1166 15.9933 34.153 16.0585C34.4007 16.4995 34.6461 16.9415 34.8893 17.3847C38.3857 23.7392 41.8841 30.0928 45.3845 36.4453C44.6627 36.1381 43.9432 35.8224 43.2262 35.498Z" fill="url(#paint5_linear_5439_10015)"/>
<path d="M0.78 65V55.9H2.886L6.214 61.477V55.9H8.164V65H6.058L2.73 59.423V65H0.78ZM12.7722 55.9H14.9692L18.2712 65H16.2042L15.6842 63.57H12.0572L11.5372 65H9.4702L12.7722 55.9ZM12.7722 61.62H14.9692L13.8642 58.604L12.7722 61.62ZM21.5096 65L18.2076 55.9H20.2746L22.7706 62.764L25.2666 55.9H27.3336L24.0316 65H21.5096ZM28.7016 65V55.9H30.6516V65H28.7016ZM32.404 65V55.9H34.51L37.838 61.477V55.9H39.788V65H37.682L34.354 59.423V65H32.404ZM44.6822 65.169C44.1709 65.169 43.6812 65.0888 43.2132 64.9285C42.7452 64.7638 42.3357 64.5298 41.9847 64.2265C41.6337 63.9188 41.3802 63.5527 41.2242 63.128L43.0572 62.452C43.1006 62.5777 43.1959 62.699 43.3432 62.816C43.4949 62.933 43.6856 63.0305 43.9152 63.1085C44.1449 63.1822 44.4006 63.219 44.6822 63.219C44.9422 63.219 45.1871 63.1822 45.4167 63.1085C45.6464 63.0305 45.8327 62.9243 45.9757 62.79C46.1187 62.6557 46.1902 62.4997 46.1902 62.322C46.1902 62.14 46.1144 61.9905 45.9627 61.8735C45.8154 61.7522 45.6247 61.6568 45.3907 61.5875C45.1611 61.5138 44.9249 61.4597 44.6822 61.425C44.0236 61.3297 43.4321 61.1737 42.9077 60.957C42.3877 60.736 41.9761 60.4327 41.6727 60.047C41.3737 59.6613 41.2242 59.1717 41.2242 58.578C41.2242 58.0103 41.3846 57.5142 41.7052 57.0895C42.0259 56.6605 42.4484 56.3268 42.9727 56.0885C43.5014 55.8502 44.0712 55.731 44.6822 55.731C45.1936 55.731 45.6832 55.8133 46.1512 55.978C46.6236 56.1383 47.0352 56.3723 47.3862 56.68C47.7372 56.9877 47.9886 57.356 48.1402 57.785L46.3072 58.448C46.2639 58.3223 46.1664 58.2032 46.0147 58.0905C45.8674 57.9735 45.6789 57.8782 45.4492 57.8045C45.2196 57.7308 44.9639 57.694 44.6822 57.694C44.4309 57.6897 44.1904 57.7265 43.9607 57.8045C43.7311 57.8825 43.5426 57.9887 43.3952 58.123C43.2479 58.2573 43.1742 58.409 43.1742 58.578C43.1742 58.812 43.2436 58.9875 43.3822 59.1045C43.5209 59.2172 43.7029 59.2973 43.9282 59.345C44.1579 59.3927 44.4092 59.436 44.6822 59.475C45.3062 59.566 45.8804 59.7285 46.4047 59.9625C46.9291 60.1965 47.3494 60.5085 47.6657 60.8985C47.9821 61.2885 48.1402 61.763 48.1402 62.322C48.1402 62.8897 47.9799 63.388 47.6592 63.817C47.3429 64.2417 46.9226 64.5732 46.3982 64.8115C45.8739 65.0498 45.3019 65.169 44.6822 65.169ZM49.5681 65V55.9H53.0001C53.4984 55.9 53.9491 56.0278 54.3521 56.2835C54.7594 56.5348 55.0823 56.8728 55.3206 57.2975C55.5589 57.7178 55.6781 58.1793 55.6781 58.682C55.6781 59.1933 55.5546 59.6592 55.3076 60.0795C55.0649 60.4998 54.7399 60.8357 54.3326 61.087C53.9253 61.3383 53.4811 61.464 53.0001 61.464H51.5181V65H49.5681ZM51.5181 59.514H52.7791C52.9524 59.514 53.1106 59.4707 53.2536 59.384C53.3966 59.293 53.5114 59.1738 53.5981 59.0265C53.6848 58.8792 53.7281 58.7167 53.7281 58.539C53.7281 58.3613 53.6848 58.1988 53.5981 58.0515C53.5114 57.9042 53.3966 57.7872 53.2536 57.7005C53.1106 57.6095 52.9524 57.564 52.7791 57.564H51.5181V59.514ZM56.9867 65V55.9H58.9367V65H56.9867ZM60.6892 65V55.9H64.3942C64.8925 55.9 65.3432 56.0257 65.7462 56.277C66.1492 56.5283 66.4677 56.8663 66.7017 57.291C66.94 57.7113 67.0592 58.175 67.0592 58.682C67.0592 59.072 66.9942 59.436 66.8642 59.774C66.7342 60.1077 66.5478 60.4045 66.3052 60.6645C66.0668 60.9202 65.7852 61.126 65.4602 61.282L67.6182 65H65.3692L63.3152 61.464H62.6392V65H60.6892ZM62.6392 59.514H64.1602C64.3335 59.514 64.4917 59.4707 64.6347 59.384C64.7777 59.293 64.8925 59.1738 64.9792 59.0265C65.0658 58.8792 65.1092 58.7167 65.1092 58.539C65.1092 58.3613 65.0658 58.1988 64.9792 58.0515C64.8925 57.9042 64.7777 57.7872 64.6347 57.7005C64.4917 57.6095 64.3335 57.564 64.1602 57.564H62.6392V59.514ZM68.6618 65V55.9H74.4598V57.85H70.6118V59.15H73.5758V61.1H70.6118V63.05H74.4598V65H68.6618ZM82.0505 55.9H84.2475L87.5495 65H85.4825L84.9625 63.57H81.3355L80.8155 65H78.7485L82.0505 55.9ZM82.0505 61.62H84.2475L83.1425 58.604L82.0505 61.62ZM88.7758 65V55.9H90.7258V65H88.7758Z" fill="url(#paint6_linear_5439_10015)"/>
<defs>
<linearGradient id="paint0_linear_5439_10015" x1="7.26436" y1="79.1854" x2="90.5173" y2="28.9554" gradientUnits="userSpaceOnUse">
<stop stop-color="#00A6DA"/>
<stop offset="0.24" stop-color="#4EC1E0"/>
<stop offset="0.75" stop-color="#57D7CA"/>
<stop offset="1" stop-color="#00C0B5"/>
</linearGradient>
<linearGradient id="paint1_linear_5439_10015" x1="5.19513" y1="75.9819" x2="88.5673" y2="25.6826" gradientUnits="userSpaceOnUse">
<stop stop-color="#00A6DA"/>
<stop offset="0.24" stop-color="#4EC1E0"/>
<stop offset="0.75" stop-color="#57D7CA"/>
<stop offset="1" stop-color="#00C0B5"/>
</linearGradient>
<linearGradient id="paint2_linear_5439_10015" x1="22.9863" y1="76.8142" x2="89.1722" y2="45.4144" gradientUnits="userSpaceOnUse">
<stop stop-color="#00A6DA"/>
<stop offset="0.24" stop-color="#4EC1E0"/>
<stop offset="0.75" stop-color="#57D7CA"/>
<stop offset="1" stop-color="#00C0B5"/>
</linearGradient>
<linearGradient id="paint3_linear_5439_10015" x1="-78.5496" y1="101.665" x2="103.878" y2="-8.77503" gradientUnits="userSpaceOnUse">
<stop stop-color="#00A6DA"/>
<stop offset="0.24" stop-color="#4EC1E0"/>
<stop offset="0.75" stop-color="#57D7CA"/>
<stop offset="1" stop-color="#00C0B5"/>
</linearGradient>
<linearGradient id="paint4_linear_5439_10015" x1="-13.3723" y1="23.8413" x2="96.4653" y2="24.1642" gradientUnits="userSpaceOnUse">
<stop stop-color="#00A6DA"/>
<stop offset="0.24" stop-color="#4EC1E0"/>
<stop offset="0.75" stop-color="#57D7CA"/>
<stop offset="1" stop-color="#00C0B5"/>
</linearGradient>
<linearGradient id="paint5_linear_5439_10015" x1="-13.3723" y1="23.8413" x2="96.4653" y2="24.1642" gradientUnits="userSpaceOnUse">
<stop stop-color="#00A6DA"/>
<stop offset="0.24" stop-color="#4EC1E0"/>
<stop offset="0.75" stop-color="#57D7CA"/>
<stop offset="1" stop-color="#00C0B5"/>
</linearGradient>
<linearGradient id="paint6_linear_5439_10015" x1="-15.4375" y1="53.5" x2="-10.242" y2="81.1768" gradientUnits="userSpaceOnUse">
<stop stop-color="#00A6DA"/>
<stop offset="0.205" stop-color="#4EC1E0"/>
<stop offset="0.82" stop-color="#57D7CA"/>
<stop offset="1" stop-color="#00C0B5"/>
</linearGradient>
</defs>
</svg>
