<svg fill="none" height="166" viewBox="0 0 284 166" width="284" xmlns="http://www.w3.org/2000/svg" xmlns:xlink="http://www.w3.org/1999/xlink"><linearGradient id="a"><stop offset="0" stop-color="#00a6da"/><stop offset=".24" stop-color="#4ec1e0"/><stop offset=".75" stop-color="#57d7ca"/><stop offset="1" stop-color="#00c0b5"/></linearGradient><linearGradient id="b" gradientUnits="userSpaceOnUse" x1="27.483" x2="326.698" xlink:href="#a" y1="273.793" y2="76.2677"/><linearGradient id="c" gradientUnits="userSpaceOnUse" x1="21.8541" x2="322.98" xlink:href="#a" y1="271.961" y2="68.6865"/><linearGradient id="d" gradientUnits="userSpaceOnUse" x1="19.6565" x2="319.301" xlink:href="#a" y1="262.714" y2="64.9151"/><linearGradient id="e" gradientUnits="userSpaceOnUse" x1="-297.164" x2="358.325" xlink:href="#a" y1="351.517" y2="-82.6709"/><linearGradient id="f" gradientUnits="userSpaceOnUse" x1="-50.5895" x2="364.943" xlink:href="#a" y1="82.4344" y2="83.7707"/><path d="m263.282 129.605c-1.406-4.866-4.328-7.754-9.366-9.021 4.925-1.415 8.035-4.154 9.177-8.569 1.085 1.705 1.955 3.707 3.392 5.154 1.468 1.478 3.494 2.411 5.231 3.556-4.175 1.119-6.986 4.079-8.434 8.88z" fill="url(#b)"/><path d="m248.733 132.436c-.726-2.461-2.237-3.921-4.843-4.562 2.547-.716 4.155-2.101 4.746-4.334.56.861 1.01 1.874 1.754 2.607.744.732 1.806 1.218 2.707 1.8-2.16.565-3.615 2.061-4.364 4.489z" fill="url(#c)"/><path d="m250.961 118.687c-.968-3.356-2.983-5.347-6.457-6.222 3.396-.976 5.54-2.864 6.327-5.91.748 1.176 1.348 2.556 2.339 3.554 1.012 1.016 2.409 1.662 3.61 2.452-2.88.773-4.819 2.816-5.819 6.126z" fill="url(#d)"/><path d="m219.849 33.1593c8.983 0 16.266-7.1967 16.266-16.0743 0-8.87755-7.283-16.07426-16.266-16.07426-8.984 0-16.266 7.19671-16.266 16.07426 0 8.8776 7.282 16.0743 16.266 16.0743z" fill="url(#e)"/><g fill="url(#f)"><path d="m278.756 104.036c-3.623-5.7319-8.776-9.9988-14.475-13.6335-.563-.3594-1.158-.676-1.738-1.005.147.4608.426.7019.712.9363 3.894 3.1897 7.476 6.6723 10.428 10.7552 2.683 3.711 4.95 7.647 6 12.111 1.787 7.601.09 14.665-4.034 21.332-2.526 4.071-6.537 7.026-11.205 8.256-3.323.867-6.706 1.488-10.122 1.856-5.511.605-11.002.297-16.469-.356v-100.8782c0-.1713-.034-.3409-.1-.4992s-.163-.3022-.286-.4233c-.122-.1212-.268-.2173-.428-.2829s-.331-.0993-.505-.0993h-32.939c-.349 0-.684.137-.931.3811-.247.244-.386.575-.386.9202v76.0366c-.612-.45-.96-.997-1.289-1.55-5.519-9.26-11.037-18.5208-16.553-27.7823-9.784-16.4116-19.57-32.8214-29.357-49.2292-7.974-13.3703-15.944-26.7405-23.911-40.1108-.391-.659124-.848-.77292098-1.528-.77066757-5.628.01577387-11.255-.00675969-16.883.01464777-1.215.0023895-2.43.0776414-3.636.2253418-9.054 1.134598-15.9986 8.562968-16.1639 17.576578-.1516 8.2171-.0342 16.4398-.0387 24.6603-.0069 14.6547-.0035 29.3105.0102 43.9675.0058.0973.0226.1937.0502.2873-1.0589-.6558-2.1177-1.3104-3.1709-1.9751-5.8755-3.7058-11.6495-7.549-17.2754-11.5882.4559-.053.9426-.0879 1.4544-.0992h.0501c.4229-.3087.6747-.5138.9471-.6873 2.2249-1.4151 4.4645-2.8066 6.6665-4.2533.3066-.2017.6679-.7233.6018-1.005-.3259-1.3994-.7875-2.7683-1.191-4.1125-.1696-.0128-.3399-.0128-.5095 0-5.431 1.0873-10.8654 2.1599-16.2872 3.2866-1.2629.2625-2.0824.0102-3.1914-1.3678-3.2141-3.9953-7.2147-7.2785-11.4877-10.1404-3.7111-2.4889-4.0769-4.7547-1.1477-7.0858 7.5566-6.0091 15.1072-12.028 22.6517-18.0566.2146-.1713.3707-.4038.447-.6659s.069-.541-.0208-.7988c-1.1568-3.2675-4.1157-4.49-7.6729-3.13-9.5124 3.6392-19.034 7.2537-28.5374 10.9177-2.4573.9476-4.6423.6502-6.7554-.8912-5.9131-4.3108-11.9254-8.4931-17.7575-12.9087-2.46421-1.8669-5.02526-1.8027-7.73107-1.2675-1.21157.2366-2.251032.9183-2.684143 2.2061-1.044025 3.1007.155007 7.4272 2.648813 9.5916 4.8611 4.2162 9.7005 8.4571 14.5822 12.6485 2.0128 1.7272 2.8915 3.7834 2.4037 6.4154-1.8282 9.8767-3.6434 19.7542-5.4458 29.6324-.4319 2.3503.22 4.4494 1.5797 6.3389.4309.5982 1.1113 1.0219 1.7416 1.5774.3693-.569.6018-.9093.8161-1.2608 4.8584-7.9621 9.7169-15.9241 14.5753-23.8862 1.7803-2.9137 4.2559-2.7796 7.2375.3684 3.3179 3.503 7.2854 6.3299 11.7806 8.1416 2.4038.9679 3.0694 1.698 3.0364 3.2776-.0935 4.5226-.1197 9.0475-.1345 13.5712 0 .4033.1344.9791.4182 1.1774.807.5633 1.7234.9701 2.6876 1.4861l6.0408-9.9285c8.8332 5.9265 17.9923 11.3493 27.3486 16.46.9438.5161 1.2435 1.0918 1.2412 2.1412-.0326 21.257-.041 42.514-.025 63.771 0 .406.0353.81.0558 1.25h35.5488v-49.022c.904.381 1.596.666 2.274.959 6.241 2.672 12.448 5.419 18.724 7.999 11.086 4.563 22.306 8.774 33.802 12.237.528.159 1.079.639 1.368 1.117 5.196 8.581 10.363 17.179 15.501 25.795.471.789.984 1.035 1.89 1.033 11.511-.033 23.015-.02 34.522-.025h.068c.35 0 .685-.138.932-.382.247-.245.386-.576.386-.921v-.292c0-4.525.015-9.05 0-13.575 0-.788.128-1.226 1.099-1.185 2.726.113 5.456.2 8.182.172 6.031-.059 12.017-.602 17.699-2.744 5.834-2.199 11.065-5.264 14.134-10.981 5.738-10.729 6.34-21.467-.34-32.031zm-115.225 18.703c-11.904-4.936-23.585-10.299-35.042-16.089v-52.0047c.382.4642.579.6535.717.8788.937 1.5249 1.866 3.0534 2.786 4.5857 13.227 21.9716 26.462 43.9402 39.705 65.9042-2.731-1.062-5.453-2.154-8.166-3.275z"/><path d="m278.756 104.036c-3.623-5.7319-8.776-9.9988-14.475-13.6335-.563-.3594-1.158-.676-1.738-1.005.147.4608.426.7019.712.9363 3.894 3.1897 7.476 6.6723 10.428 10.7552 2.683 3.711 4.95 7.647 6 12.111 1.787 7.601.09 14.665-4.034 21.332-2.526 4.071-6.537 7.026-11.205 8.256-3.323.867-6.706 1.488-10.122 1.856-5.511.605-11.002.297-16.469-.356v-100.8782c0-.1713-.034-.3409-.1-.4992s-.163-.3022-.286-.4233c-.122-.1212-.268-.2173-.428-.2829s-.331-.0993-.505-.0993h-32.939c-.349 0-.684.137-.931.3811-.247.244-.386.575-.386.9202v76.0366c-.612-.45-.96-.997-1.289-1.55-5.519-9.26-11.037-18.5208-16.553-27.7823-9.784-16.4116-19.57-32.8214-29.357-49.2292-7.974-13.3703-15.944-26.7405-23.911-40.1108-.391-.659124-.848-.77292098-1.528-.77066757-5.628.01577387-11.255-.00675969-16.883.01464777-1.215.0023895-2.43.0776414-3.636.2253418-9.054 1.134598-15.9986 8.562968-16.1639 17.576578-.1516 8.2171-.0342 16.4398-.0387 24.6603-.0069 14.6547-.0035 29.3105.0102 43.9675.0058.0973.0226.1937.0502.2873-1.0589-.6558-2.1177-1.3104-3.1709-1.9751-5.8755-3.7058-11.6495-7.549-17.2754-11.5882.4559-.053.9426-.0879 1.4544-.0992h.0501c.4229-.3087.6747-.5138.9471-.6873 2.2249-1.4151 4.4645-2.8066 6.6665-4.2533.3066-.2017.6679-.7233.6018-1.005-.3259-1.3994-.7875-2.7683-1.191-4.1125-.1696-.0128-.3399-.0128-.5095 0-5.431 1.0873-10.8654 2.1599-16.2872 3.2866-1.2629.2625-2.0824.0102-3.1914-1.3678-3.2141-3.9953-7.2147-7.2785-11.4877-10.1404-3.7111-2.4889-4.0769-4.7547-1.1477-7.0858 7.5566-6.0091 15.1072-12.028 22.6517-18.0566.2146-.1713.3707-.4038.447-.6659s.069-.541-.0208-.7988c-1.1568-3.2675-4.1157-4.49-7.6729-3.13-9.5124 3.6392-19.034 7.2537-28.5374 10.9177-2.4573.9476-4.6423.6502-6.7554-.8912-5.9131-4.3108-11.9254-8.4931-17.7575-12.9087-2.46421-1.8669-5.02526-1.8027-7.73107-1.2675-1.21157.2366-2.251032.9183-2.684143 2.2061-1.044025 3.1007.155007 7.4272 2.648813 9.5916 4.8611 4.2162 9.7005 8.4571 14.5822 12.6485 2.0128 1.7272 2.8915 3.7834 2.4037 6.4154-1.8282 9.8767-3.6434 19.7542-5.4458 29.6324-.4319 2.3503.22 4.4494 1.5797 6.3389.4309.5982 1.1113 1.0219 1.7416 1.5774.3693-.569.6018-.9093.8161-1.2608 4.8584-7.9621 9.7169-15.9241 14.5753-23.8862 1.7803-2.9137 4.2559-2.7796 7.2375.3684 3.3179 3.503 7.2854 6.3299 11.7806 8.1416 2.4038.9679 3.0694 1.698 3.0364 3.2776-.0935 4.5226-.1197 9.0475-.1345 13.5712 0 .4033.1344.9791.4182 1.1774.807.5633 1.7234.9701 2.6876 1.4861l6.0408-9.9285c8.8332 5.9265 17.9923 11.3493 27.3486 16.46.9438.5161 1.2435 1.0918 1.2412 2.1412-.0326 21.257-.041 42.514-.025 63.771 0 .406.0353.81.0558 1.25h35.5488v-49.022c.904.381 1.596.666 2.274.959 6.241 2.672 12.448 5.419 18.724 7.999 11.086 4.563 22.306 8.774 33.802 12.237.528.159 1.079.639 1.368 1.117 5.196 8.581 10.363 17.179 15.501 25.795.471.789.984 1.035 1.89 1.033 11.511-.033 23.015-.02 34.522-.025h.068c.35 0 .685-.138.932-.382.247-.245.386-.576.386-.921v-.292c0-4.525.015-9.05 0-13.575 0-.788.128-1.226 1.099-1.185 2.726.113 5.456.2 8.182.172 6.031-.059 12.017-.602 17.699-2.744 5.834-2.199 11.065-5.264 14.134-10.981 5.738-10.729 6.34-21.467-.34-32.031zm-115.225 18.703c-11.904-4.936-23.585-10.299-35.042-16.089v-52.0047c.382.4642.579.6535.717.8788.937 1.5249 1.866 3.0534 2.786 4.5857 13.227 21.9716 26.462 43.9402 39.705 65.9042-2.731-1.062-5.453-2.154-8.166-3.275z"/></g></svg>